<?xml version="1.0" encoding="UTF-8" standalone="no"?>
<!DOCTYPE svg PUBLIC "-//W3C//DTD SVG 1.1//EN"
 "http://www.w3.org/Graphics/SVG/1.1/DTD/svg11.dtd">
<!-- Generated by graphviz version 12.2.1 (20241206.2353)
 -->
<!-- Pages: 1 -->
<svg width="882pt" height="453pt"
 viewBox="0.00 0.00 881.84 452.50" xmlns="http://www.w3.org/2000/svg" xmlns:xlink="http://www.w3.org/1999/xlink">
<g id="graph0" class="graph" transform="scale(1 1) rotate(0) translate(4 448.5)">
<polygon fill="white" stroke="none" points="-4,4 -4,-448.5 877.84,-448.5 877.84,4 -4,4"/>
<text text-anchor="middle" x="436.92" y="-421.5" font-family="Times New Roman,serif" font-size="20.00">XGBoost Tree 99</text>
<!-- 0 -->
<g id="node1" class="node">
<title>0</title>
<ellipse fill="none" stroke="black" cx="38.04" cy="-193" rx="38.04" ry="18"/>
<text text-anchor="middle" x="38.04" y="-187.95" font-family="Times New Roman,serif" font-size="14.00">f23&lt;12</text>
</g>
<!-- 1 -->
<g id="node2" class="node">
<title>1</title>
<ellipse fill="none" stroke="black" cx="253.29" cy="-247" rx="72.85" ry="18"/>
<text text-anchor="middle" x="253.29" y="-241.95" font-family="Times New Roman,serif" font-size="14.00">f21&lt;3.30054998</text>
</g>
<!-- 0&#45;&gt;1 -->
<g id="edge1" class="edge">
<title>0&#45;&gt;1</title>
<path fill="none" stroke="#ff0000" d="M71.9,-201.32C103.27,-209.26 151.34,-221.44 189.98,-231.22"/>
<polygon fill="#ff0000" stroke="#ff0000" points="189.1,-234.61 199.65,-233.67 190.82,-227.82 189.1,-234.61"/>
<text text-anchor="middle" x="125.96" y="-224.82" font-family="Times New Roman,serif" font-size="14.00">yes</text>
</g>
<!-- 2 -->
<g id="node3" class="node">
<title>2</title>
<ellipse fill="none" stroke="black" cx="253.29" cy="-166" rx="77.45" ry="18"/>
<text text-anchor="middle" x="253.29" y="-160.95" font-family="Times New Roman,serif" font-size="14.00">f9&lt;0.0435401872</text>
</g>
<!-- 0&#45;&gt;2 -->
<g id="edge2" class="edge">
<title>0&#45;&gt;2</title>
<path fill="none" stroke="#0000ff" d="M70.23,-183.04C77.96,-180.9 86.27,-178.87 94.09,-177.5 116.93,-173.5 141.87,-170.88 165.05,-169.18"/>
<polygon fill="#0000ff" stroke="#0000ff" points="165.02,-172.69 174.76,-168.51 164.54,-165.7 165.02,-172.69"/>
<text text-anchor="middle" x="125.96" y="-180.7" font-family="Times New Roman,serif" font-size="14.00">no, missing</text>
</g>
<!-- 3 -->
<g id="node4" class="node">
<title>3</title>
<ellipse fill="none" stroke="black" cx="511.02" cy="-342" rx="75.92" ry="18"/>
<text text-anchor="middle" x="511.02" y="-336.95" font-family="Times New Roman,serif" font-size="14.00">f19&lt;&#45;1.24731481</text>
</g>
<!-- 1&#45;&gt;3 -->
<g id="edge3" class="edge">
<title>1&#45;&gt;3</title>
<path fill="none" stroke="#ff0000" d="M295.1,-262.16C339.41,-278.62 410.28,-304.95 458.43,-322.83"/>
<polygon fill="#ff0000" stroke="#ff0000" points="456.93,-326.01 467.52,-326.21 459.36,-319.45 456.93,-326.01"/>
<text text-anchor="middle" x="380.62" y="-306.21" font-family="Times New Roman,serif" font-size="14.00">yes</text>
</g>
<!-- 4 -->
<g id="node5" class="node">
<title>4</title>
<ellipse fill="none" stroke="black" cx="511.02" cy="-247" rx="80.52" ry="18"/>
<text text-anchor="middle" x="511.02" y="-241.95" font-family="Times New Roman,serif" font-size="14.00">f15&lt;&#45;0.158708587</text>
</g>
<!-- 1&#45;&gt;4 -->
<g id="edge4" class="edge">
<title>1&#45;&gt;4</title>
<path fill="none" stroke="#0000ff" d="M326.55,-247C355.23,-247 388.55,-247 418.86,-247"/>
<polygon fill="#0000ff" stroke="#0000ff" points="418.8,-250.5 428.8,-247 418.8,-243.5 418.8,-250.5"/>
<text text-anchor="middle" x="380.62" y="-250.2" font-family="Times New Roman,serif" font-size="14.00">no, missing</text>
</g>
<!-- 5 -->
<g id="node10" class="node">
<title>5</title>
<ellipse fill="none" stroke="black" cx="511.02" cy="-166" rx="77.45" ry="18"/>
<text text-anchor="middle" x="511.02" y="-160.95" font-family="Times New Roman,serif" font-size="14.00">f15&lt;0.719691634</text>
</g>
<!-- 2&#45;&gt;5 -->
<g id="edge9" class="edge">
<title>2&#45;&gt;5</title>
<path fill="none" stroke="#ff0000" d="M331.02,-166C359.72,-166 392.54,-166 422.16,-166"/>
<polygon fill="#ff0000" stroke="#ff0000" points="421.83,-169.5 431.83,-166 421.83,-162.5 421.83,-169.5"/>
<text text-anchor="middle" x="380.62" y="-169.2" font-family="Times New Roman,serif" font-size="14.00">yes</text>
</g>
<!-- 6 -->
<g id="node11" class="node">
<title>6</title>
<ellipse fill="none" stroke="black" cx="511.02" cy="-72" rx="68.24" ry="18"/>
<text text-anchor="middle" x="511.02" y="-66.95" font-family="Times New Roman,serif" font-size="14.00">f6&lt;1.31543231</text>
</g>
<!-- 2&#45;&gt;6 -->
<g id="edge10" class="edge">
<title>2&#45;&gt;6</title>
<path fill="none" stroke="#0000ff" d="M296.23,-150.58C340.93,-134.15 411.7,-108.14 459.45,-90.59"/>
<polygon fill="#0000ff" stroke="#0000ff" points="460.56,-93.91 468.74,-87.17 458.15,-87.34 460.56,-93.91"/>
<text text-anchor="middle" x="380.62" y="-133.38" font-family="Times New Roman,serif" font-size="14.00">no, missing</text>
</g>
<!-- 7 -->
<g id="node6" class="node">
<title>7</title>
<ellipse fill="none" stroke="black" cx="782.57" cy="-396" rx="91.27" ry="18"/>
<text text-anchor="middle" x="782.57" y="-390.95" font-family="Times New Roman,serif" font-size="14.00">leaf=&#45;0.00479960768</text>
</g>
<!-- 3&#45;&gt;7 -->
<g id="edge5" class="edge">
<title>3&#45;&gt;7</title>
<path fill="none" stroke="#ff0000" d="M567.93,-354.27C581.54,-357.19 596.05,-360.25 609.55,-363 640.33,-369.27 674.28,-375.85 703.83,-381.47"/>
<polygon fill="#ff0000" stroke="#ff0000" points="702.96,-384.87 713.43,-383.3 704.26,-377.99 702.96,-384.87"/>
<text text-anchor="middle" x="641.42" y="-378.36" font-family="Times New Roman,serif" font-size="14.00">yes</text>
</g>
<!-- 8 -->
<g id="node7" class="node">
<title>8</title>
<ellipse fill="none" stroke="black" cx="782.57" cy="-342" rx="89.23" ry="18"/>
<text text-anchor="middle" x="782.57" y="-336.95" font-family="Times New Roman,serif" font-size="14.00">leaf=&#45;5.7299505e&#45;05</text>
</g>
<!-- 3&#45;&gt;8 -->
<g id="edge6" class="edge">
<title>3&#45;&gt;8</title>
<path fill="none" stroke="#0000ff" d="M587.1,-342C616.38,-342 650.36,-342 681.65,-342"/>
<polygon fill="#0000ff" stroke="#0000ff" points="681.53,-345.5 691.53,-342 681.53,-338.5 681.53,-345.5"/>
<text text-anchor="middle" x="641.42" y="-345.2" font-family="Times New Roman,serif" font-size="14.00">no, missing</text>
</g>
<!-- 9 -->
<g id="node8" class="node">
<title>9</title>
<ellipse fill="none" stroke="black" cx="782.57" cy="-288" rx="86.67" ry="18"/>
<text text-anchor="middle" x="782.57" y="-282.95" font-family="Times New Roman,serif" font-size="14.00">leaf=&#45;0.0139549403</text>
</g>
<!-- 4&#45;&gt;9 -->
<g id="edge7" class="edge">
<title>4&#45;&gt;9</title>
<path fill="none" stroke="#ff0000" d="M576.78,-257.8C587.71,-259.57 598.95,-261.36 609.55,-263 638.64,-267.5 670.54,-272.2 698.88,-276.3"/>
<polygon fill="#ff0000" stroke="#ff0000" points="698.07,-279.72 708.47,-277.68 699.07,-272.79 698.07,-279.72"/>
<text text-anchor="middle" x="641.42" y="-275.44" font-family="Times New Roman,serif" font-size="14.00">yes</text>
</g>
<!-- 10 -->
<g id="node9" class="node">
<title>10</title>
<ellipse fill="none" stroke="black" cx="782.57" cy="-234" rx="83.6" ry="18"/>
<text text-anchor="middle" x="782.57" y="-228.95" font-family="Times New Roman,serif" font-size="14.00">leaf=0.0243045893</text>
</g>
<!-- 4&#45;&gt;10 -->
<g id="edge8" class="edge">
<title>4&#45;&gt;10</title>
<path fill="none" stroke="#0000ff" d="M589.98,-243.24C621,-241.74 656.93,-240.01 689.24,-238.45"/>
<polygon fill="#0000ff" stroke="#0000ff" points="689.17,-241.96 698.99,-237.98 688.83,-234.97 689.17,-241.96"/>
<text text-anchor="middle" x="641.42" y="-245.25" font-family="Times New Roman,serif" font-size="14.00">no, missing</text>
</g>
<!-- 11 -->
<g id="node12" class="node">
<title>11</title>
<ellipse fill="none" stroke="black" cx="782.57" cy="-180" rx="88.2" ry="18"/>
<text text-anchor="middle" x="782.57" y="-174.95" font-family="Times New Roman,serif" font-size="14.00">leaf=0.00318927504</text>
</g>
<!-- 5&#45;&gt;11 -->
<g id="edge11" class="edge">
<title>5&#45;&gt;11</title>
<path fill="none" stroke="#ff0000" d="M587.1,-169.9C617.48,-171.48 652.93,-173.32 685.18,-174.99"/>
<polygon fill="#ff0000" stroke="#ff0000" points="684.76,-178.48 694.93,-175.5 685.12,-171.49 684.76,-178.48"/>
<text text-anchor="middle" x="641.42" y="-177.45" font-family="Times New Roman,serif" font-size="14.00">yes</text>
</g>
<!-- 12 -->
<g id="node13" class="node">
<title>12</title>
<ellipse fill="none" stroke="black" cx="782.57" cy="-126" rx="86.67" ry="18"/>
<text text-anchor="middle" x="782.57" y="-120.95" font-family="Times New Roman,serif" font-size="14.00">leaf=&#45;0.0025169726</text>
</g>
<!-- 5&#45;&gt;12 -->
<g id="edge12" class="edge">
<title>5&#45;&gt;12</title>
<path fill="none" stroke="#0000ff" d="M575.74,-155.72C587,-153.95 598.61,-152.15 609.55,-150.5 638.51,-146.14 670.26,-141.56 698.5,-137.55"/>
<polygon fill="#0000ff" stroke="#0000ff" points="698.64,-141.07 708.05,-136.2 697.66,-134.14 698.64,-141.07"/>
<text text-anchor="middle" x="641.42" y="-153.7" font-family="Times New Roman,serif" font-size="14.00">no, missing</text>
</g>
<!-- 13 -->
<g id="node14" class="node">
<title>13</title>
<ellipse fill="none" stroke="black" cx="782.57" cy="-72" rx="91.27" ry="18"/>
<text text-anchor="middle" x="782.57" y="-66.95" font-family="Times New Roman,serif" font-size="14.00">leaf=&#45;0.00108713983</text>
</g>
<!-- 6&#45;&gt;13 -->
<g id="edge13" class="edge">
<title>6&#45;&gt;13</title>
<path fill="none" stroke="#ff0000" d="M579.69,-72C609.95,-72 646.28,-72 679.72,-72"/>
<polygon fill="#ff0000" stroke="#ff0000" points="679.43,-75.5 689.43,-72 679.43,-68.5 679.43,-75.5"/>
<text text-anchor="middle" x="641.42" y="-75.2" font-family="Times New Roman,serif" font-size="14.00">yes</text>
</g>
<!-- 14 -->
<g id="node15" class="node">
<title>14</title>
<ellipse fill="none" stroke="black" cx="782.57" cy="-18" rx="83.6" ry="18"/>
<text text-anchor="middle" x="782.57" y="-12.95" font-family="Times New Roman,serif" font-size="14.00">leaf=0.0124911694</text>
</g>
<!-- 6&#45;&gt;14 -->
<g id="edge14" class="edge">
<title>6&#45;&gt;14</title>
<path fill="none" stroke="#0000ff" d="M565.14,-60.69C579.54,-57.66 595.13,-54.42 609.55,-51.5 641.81,-44.97 677.54,-37.97 708.03,-32.07"/>
<polygon fill="#0000ff" stroke="#0000ff" points="708.37,-35.57 717.53,-30.24 707.05,-28.7 708.37,-35.57"/>
<text text-anchor="middle" x="641.42" y="-54.7" font-family="Times New Roman,serif" font-size="14.00">no, missing</text>
</g>
</g>
</svg>
